<?xml version="1.0" standalone="no"?>
<!DOCTYPE svg PUBLIC "-//W3C//DTD SVG 20010904//EN"
 "http://www.w3.org/TR/2001/REC-SVG-20010904/DTD/svg10.dtd">
<svg version="1.0" xmlns="http://www.w3.org/2000/svg"
 width="320.000000pt" height="320.000000pt" viewBox="0 0 320.000000 320.000000"
 preserveAspectRatio="xMidYMid meet">
<metadata>
Created by potrace 1.14, written by Peter Selinger 2001-2017
</metadata>
<g transform="translate(0.000000,320.000000) scale(0.100000,-0.100000)"
fill="#000000" stroke="none">
<path d="M0 1600 l0 -1600 1600 0 1600 0 0 1600 0 1600 -1600 0 -1600 0 0
-1600z m1803 1489 c704 -104 1229 -664 1287 -1373 27 -343 -73 -703 -277 -989
-74 -104 -236 -266 -340 -340 -289 -206 -661 -308 -1003 -277 -671 62 -1201
534 -1346 1200 -27 121 -27 458 -1 580 70 324 213 580 450 807 216 206 490
340 792 388 100 16 343 18 438 4z"/>
<path d="M1132 2490 c-23 -5 -47 -12 -52 -15 -6 -4 -10 -317 -10 -880 l0 -874
22 -13 c17 -9 72 -13 198 -12 159 1 183 3 265 28 112 33 254 101 333 161 83
63 189 179 238 261 87 148 126 285 126 454 0 403 -274 749 -689 867 -72 20
-115 25 -238 28 -82 2 -169 0 -193 -5z m268 -78 c0 -5 -9 -17 -19 -26 -34 -30
-62 -113 -63 -180 0 -105 17 -144 167 -378 76 -119 215 -351 215 -359 0 -3
-19 -11 -42 -18 -24 -7 -80 -30 -125 -52 -114 -54 -188 -130 -250 -256 -48
-96 -48 -97 -48 -197 0 -77 4 -109 18 -135 9 -19 15 -36 13 -38 -2 -3 -29 -2
-60 2 l-56 7 0 813 c0 766 1 814 18 818 32 8 232 7 232 -1z m163 -56 c66 -27
95 -81 121 -221 10 -55 14 -60 38 -63 22 -3 29 2 34 23 9 34 -2 120 -21 175
-8 24 -14 45 -12 46 2 2 35 -17 73 -42 230 -150 373 -402 374 -656 l0 -78 -54
0 c-30 0 -76 -5 -103 -10 -141 -29 -228 -40 -236 -27 -4 6 -52 86 -106 177
-54 91 -126 208 -161 260 -88 134 -110 183 -110 253 0 69 20 124 58 154 31 26
59 29 105 9z m591 -904 c16 -26 -99 -302 -126 -302 -6 0 -28 18 -50 40 -40 40
-40 41 -36 104 4 73 34 122 90 149 35 17 113 23 122 9z m-280 -68 c-39 -92 -9
-220 65 -271 22 -15 40 -31 41 -35 1 -18 -211 -188 -234 -188 -3 0 10 28 28
63 66 120 86 240 61 362 -9 44 -17 84 -18 90 -2 7 61 25 71 19 1 0 -5 -18 -14
-40z m-189 -48 c77 -32 98 -143 51 -271 -84 -233 -333 -368 -407 -222 -77 150
90 454 274 497 46 11 44 11 82 -4z"/>
</g>
</svg>
